<?xml version="1.0" encoding="UTF-8" standalone="no"?>
<!DOCTYPE svg PUBLIC "-//W3C//DTD SVG 1.1//EN" "http://www.w3.org/Graphics/SVG/1.1/DTD/svg11.dtd">
<svg width="21px" height="21px" version="1.1" xmlns="http://www.w3.org/2000/svg" xmlns:xlink="http://www.w3.org/1999/xlink" xml:space="preserve" xmlns:serif="http://www.serif.com/" style="fill-rule:evenodd;clip-rule:evenodd;stroke-linejoin:round;stroke-miterlimit:2;">
    <g transform="matrix(1,0,0,1,-769,-130)">
        <g transform="matrix(0.352983,0,0,2.05982,1201.23,-3694.54)">
            <g id="icon-modal-close" transform="matrix(2.50404,0.429107,-2.50404,0.429107,-35756.7,-4397.88)">
                <path d="M14195,385.031C14199.4,385.031 14203,388.616 14203,393.031C14203,397.447 14199.4,401.031 14195,401.031C14190.6,401.031 14187,397.447 14187,393.031C14187,388.616 14190.6,385.031 14195,385.031ZM14196,392.031L14196,389.531C14196,388.979 14195.6,388.531 14195,388.531C14194.4,388.531 14194,388.979 14194,389.531L14194,392.031L14191.5,392.031C14190.9,392.031 14190.5,392.479 14190.5,393.031C14190.5,393.583 14190.9,394.031 14191.5,394.031L14194,394.031L14194,396.531C14194,397.083 14194.4,397.531 14195,397.531C14195.6,397.531 14196,397.083 14196,396.531L14196,394.031L14198.5,394.031C14199.1,394.031 14199.5,393.583 14199.5,393.031C14199.5,392.479 14199.1,392.031 14198.5,392.031L14196,392.031Z" style="fill:rgb(212,215,218);"/>
            </g>
        </g>
    </g>
</svg>
